<?xml version="1.0" encoding="UTF-8"?><svg id="Layer_2" xmlns="http://www.w3.org/2000/svg" viewBox="0 0 77.26 111.43"><defs><style>.cls-1{stroke-width:.2px;}.cls-1,.cls-2{fill:#1c1b1a;}.cls-1,.cls-2,.cls-3{stroke:#1c1b1a;stroke-miterlimit:10;}.cls-2{stroke-width:.25px;}.cls-3{fill:none;}</style></defs><g id="Layer_1-2"><path class="cls-2" d="m55.85,2.65c.55-.39.92-.84,1.06-1.4.15-.61-.34-.94-.85-.76-.35-.13-.6-.23-.84-.32-.02.29-.14.6-.06.85.17.53.43,1.03.69,1.63Zm-.06-1.4c.15-.15.22-.27.33-.34.09-.05.21-.06.31-.08.03.12.11.28.07.36-.17.3-.39.58-.62.89-.47-.85-.58-1.26-.43-1.65.11.27.21.5.34.81Z"/><path class="cls-2" d="m16.16,63.87c.36.13.71.24,1.04.37.09.04.17.15.21.24.12.28.21.56.22.82-.06.37-.13.75-.15,1.12,0,.03.39.17.46.11.18-.16.28-.41.46-.71.92-.03,1.94.06,2.67.88-.06.39-.16.74-.14,1.09.01.16.24.41.41.44.3.05.41-.21.41-.48,0-.29-.02-.57-.03-.82.38-.19.73-.39,1.11-.55.12-.05.32-.06.41,0,.56.42,1.1.3,1.59-.08.39-.29.71-.24,1.07.02.28.2.59.36.84.5-.05.29-.13.58-.12.87,0,.1.24.3.32.28.13-.04.29-.21.32-.34.04-.21-.01-.45-.03-.72.55-.05,1.1-.11,1.65-.14.06,0,.17.09.19.15.26.84.9,1.18,1.74,1.33-.04.18-.13.35-.11.52.01.18.08.38.19.53.05.06.33.06.37,0,.1-.15.2-.39.15-.52-.21-.5,0-.73.42-.94.17-.08.26-.29.42-.41.19-.14.4-.25.65-.4.13.43-.11.97.51.93.33-.02.37-.34.15-1.12.48-.12.94-.29,1.43-.34.54-.06,1.09-.01,1.66-.01.02.2.02.46.06.7.05.28.2.49.53.43.33-.07.26-.32.21-.54-.04-.19-.08-.39-.14-.57-.15-.51.13-.84.68-.82.54.02,1.09,0,1.68,0,.01.18-.02.39.06.55.07.15.27.23.41.34.09-.15.25-.3.26-.45.01-.2-.09-.41-.12-.52.28-.38.52-.72.78-1.04.06-.07.21-.12.31-.11.73.1,1.47.23,2.21.34.04.23.04.5.13.73.06.15.3.36.4.33.16-.04.34-.25.38-.41.05-.21.01-.47-.09-.66-.15-.31,0-.48.14-.73.31-.54.62-1.09.79-1.68.31-1.07.95-1.84,1.92-2.42.04.26.03.5.12.7.06.14.25.22.38.32.1-.13.3-.28.28-.4-.05-.33-.18-.64-.27-.95,1.13-.83,2.32-1.69,3.4-2.48-.82,1.24-1.15,2.83-1.75,4.3-.95,2.35-1.87,4.72-3.49,6.73-.15.19-.27.41-.35.64-.23.65-.6,1.17-1.15,1.6-.64.5-.6,1.84.11,2.49.82.75,1.14,1.67,1.3,2.73.1.65.36,1.28.61,1.89.23.56.54,1.09.82,1.63.16.32.41.49.78.39.36-.09.42-.38.38-.68-.18-1.34-.38-2.68-.54-4.02-.05-.39-.08-.8.02-1.17.69-2.61,1.3-5.25,2.39-7.73.7-1.61,1.55-3.13,2.68-4.49.31-.37.59-.78.82-1.21.75-1.44,1.76-2.7,2.79-3.93,1.29-1.54,1.72-3.32,1.55-5.28-.03-.29.04-.43.31-.54.33-.14.63-.35.92-.52.09.18.16.44.33.61.11.12.4.19.54.12.11-.06.21-.38.15-.51-.19-.44-.45-.86-.96-1.03-.06-.02-.13-.02-.17-.06-.65-.76-1.52-.84-2.44-.87-1.11-.03-2.21-.16-3.32-.2-.42-.02-.85.04-1.26.15-1.96.53-3.93,1.07-5.88,1.64-.75.22-1.47.55-2.32.87-.17-.53-.41-1.1-.51-1.7-.11-.67-.11-1.36-.12-2.04,0-1.02.31-1.87,1.25-2.46.56-.35,1.01-.86,1.52-1.28.21-.17.46-.3.69-.43.76-.42,1.11-1.01.87-1.85-.18-.65-.52-1.26-.84-1.85-.31-.58-.69-1.11-1.01-1.68-.09-.15-.13-.39-.07-.55.21-.62.41-1.23.75-1.82.72-1.24,1.29-2.57,1.9-3.88.22-.48.35-1.01.57-1.49.42-.91.54-1.86.54-2.84,0-.49.22-.84.5-1.23,1.03-1.47,2.07-2.94,2.57-4.73.74-2.64,1.45-5.31,3-7.64.28-.43.64-.8.99-1.25.38.77.72,1.48,1.07,2.18.16.32.15.55-.2.76-.21.12-.4.33-.54.54-.18.28-.04.5.3.53.77.07,2.29-.8,2.57-1.5.06-.15.03-.41-.06-.53-.06-.08-.33-.04-.49,0-.17.05-.32.17-.49.27-.79-.87-1.1-1.85-.75-3.03-.5.42-.38,1-.46,1.58-.26-.34-.49-.65-.69-.91.5-.8,1.01-1.56,1.45-2.35.11-.2.13-.61,0-.77-.21-.25-.55-.09-.76.13-.28.29-.52.63-.8.93-.32.35-.62.73-.99,1-.48.35-1.01.61-1.65.28-.32-.17-.56,0-.68.32-.26.76-.5,1.52-.78,2.28-.16.45-.37.88-.57,1.31-.11.25-.28.48-.35.74-.33,1.11-1.05,1.96-1.72,2.87-1.26,1.7-2.59,3.35-3.24,5.45-.6,1.94-1.34,3.85-2.16,5.71-.43.97-1.14,1.82-1.76,2.7-.18.25-.46.44-.72.62-.55.39-.76.38-1.19,0-.38-.33-.38-.61-.14-1.19.37-.89.74-1.79,1.03-2.71.13-.4.13-.88.05-1.31-.1-.55-.6-.75-1.09-.83-.5-.08-1.03-.08-1.54-.08-.33,0-.59-.07-.78-.35-.28-.4-.62-.4-.96-.1-.54.47-1.16.79-1.86.89-.52.08-1.05.11-1.58.15-.64.04-1.18.16-1.62.74-.46.59-1.12,1.03-1.6,1.61-.33.41-.6.93-.7,1.44-.19.95-.73,1.54-1.56,1.94-.27.13-.55.26-.82.4-.82.45-1.05,1.32-.52,2.08.28.4.63.74.96,1.09.54.58.64,1.03.24,1.72-.26.46-.58.89-.9,1.32-.31.42-.45.85-.27,1.36.04.1-.03.3-.12.38-.68.67-1.38,1.33-2.07,1.98-.05.05-.11.11-.18.14-1.16.51-1.9,1.54-2.85,2.31-.82.66-1.81,1.11-2.71,1.66-.85.52-1.7,1.04-2.55,1.57-1.02.63-2.01,1.31-3.05,1.89-1.5.82-2.82,1.84-3.85,3.21-.32.43-.65.85-.94,1.29-.09.14-.18.39-.12.49.08.13.32.2.49.22.77.09,1.32-.37,1.87-.8.37-.28.7-.61,1.08-.95.07.18.11.32.17.45.2.47.53.55.93.22.12-.1.24-.2.33-.32,1.19-1.58,2.91-2.52,4.48-3.62.78-.54,1.69-.89,2.56-1.3,1.31-.62,2.53-1.35,3.67-2.27,1.27-1.02,2.63-1.97,4.26-2.46.4.48.26,1.04.19,1.59-.11.77-.14,1.51.31,2.2.26.4.58.62,1.08.63,1.18.02,2-.52,2.38-1.64.26-.77.62-1.43,1.52-1.59.3-.05.6-.08.92-.13.02,2.01-1.4,3.58-1.73,5.49-1.24-.28-2.42-.01-3.52.44-1.78.74-3.52,1.58-5.25,2.43-1.19.58-2.12,1.5-3.06,2.42-1.55,1.52-2.84,3.3-4.59,4.62-.23.17-.5.29-.72.46-.47.37-1.02.7-.93,1.42.03.2.16.39.25.59.19-.12.38-.24.57-.37.03-.02.05-.07.05-.06Zm.32-.82c.82-.65,1.67-1.24,2.41-1.94,1.13-1.08,2.2-2.23,3.26-3.37,1.08-1.16,2.34-2.08,3.78-2.74,1.28-.59,2.55-1.23,3.86-1.74.85-.33,1.78-.51,2.68-.69.39-.08.82-.03,1,.46.03.08.16.15.25.17.44.11.88.24,1.33.28.71.05,1.43.06,2.14.05,1.39-.02,2.75-.17,3.99-.9.65-.38,1.38-.64,2.02-1.04.37-.23.66-.56,1.17-.42.12.03.28-.09.42-.14.37-.14.72-.32,1.1-.43,2.26-.65,4.53-1.28,6.79-1.91.14-.04.3-.06.45-.05,1.49.07,2.97.16,4.46.24.13,0,.29.03.39.1.28.18.53.4.8.6-.27.19-.54.39-.85.62-.15-.3-.25-.51-.35-.72-.08.06-.16.13-.24.19.02.2.05.4.08.65-.63.31-1.25.66-1.9.93-1.55.64-2.68,1.71-3.4,3.21-.81,1.7-2.09,2.96-3.66,3.95-.61.39-1.21.8-1.82,1.21-.96.64-1.59,1.5-1.9,2.64-.15.55-.51,1.06-.8,1.57-.17.3-.45.37-.79.31-.55-.11-1.11-.2-1.66-.3-.59-.12-.87-.04-1.02.4-.15.43-.44.67-.85.73-.5.08-1.03.15-1.53.1-.47-.05-.82.02-1.15.35-.49.49-1.09.6-1.76.53-.37-.04-.76,0-1.11.09-.45.11-.88.4-1.33.45-.51.05-.83.26-1.11.66-.26.37-.66.55-1.12.45-.48-.11-.8-.41-.94-.9-.18-.66-.19-.65-.88-.52-.1.02-.21.05-.31.06-.72.04-1.46.18-2.1-.33-.77-.6-1.11-.59-1.92-.07-.18.11-.52.2-.64.1-.55-.43-1.03-.34-1.54.03-.37.27-.73.24-1.08-.05-.62-.5-1.33-.7-2.12-.7-.67,0-1.05-.47-.97-1.13.06-.5-.02-.57-.55-.5-.47.07-.82-.14-1-.53Zm17.24-20.75s-.02-.07-.03-.11c-.07-.01-.15-.05-.2-.03-.42.18-.88.31-1.23.58-1.37,1.04-2.91,1.75-4.48,2.39-1.36.56-2.55,1.38-3.68,2.26-1.2.94-2.47,1.73-3.85,2.33-1.92.83-3.58,2.06-5.27,3.24-.38.27-.7.63-1.03.96-.31.31-.59.63-.95,1.01-.11-.36-.2-.62-.3-.93-.13.03-.34.03-.47.12-.57.43-1.11.89-1.67,1.34-.33.26-.65.54-1.16.44.07-.12.12-.21.18-.29,1.25-1.77,2.8-3.16,4.76-4.14,1.02-.51,1.93-1.25,2.89-1.88.52-.34,1.02-.71,1.56-1.02.74-.42,1.53-.75,2.25-1.19.66-.4,1.31-.83,1.87-1.35.73-.69,1.47-1.36,2.38-1.81.18-.09.32-.28.47-.42.42-.42.8-.89,1.26-1.24.76-.59,1.58-1.11,2.38-1.65,1.89-1.27,3.89-2.29,6.19-2.64.33-.05.64-.18.95-.29.45-.17.72-.51.7-1,0-.24-.08-.48-.15-.71-.22-.74.05-1.57.67-2,.52-.36.62-.59.46-1.2-.11-.44-.14-.84.01-1.29.16-.48.15-.98-.32-1.37-.14-.11-.28-.38-.24-.53.31-1.01-.28-1.66-1.48-1.31-.54.15-1.05.39-1.56.62-.48.21-.95.18-1.4-.04-.16-.08-.4-.35-.37-.41.12-.22.3-.47.52-.55.36-.13.76-.18,1.15-.2,1.17-.05,2.26-.28,3.15-1.1.28-.26.51-.22.72.07.19.25.4.32.73.3.52-.03,1.06.05,1.58.11.11.01.27.12.29.21.26,1.26.4,2.51-.61,3.55-.27.28-.33.6-.33,1,0,1.02.85,1.41,1.42,2,.03.03.28-.08.28-.1-.06-.36.26-.33.44-.46.38-.27.84-.49,1.11-.86.85-1.16,1.75-2.3,2.26-3.68.68-1.84,1.37-3.67,2.08-5.49.19-.49.41-.99.71-1.42.94-1.36,1.93-2.68,2.9-4.02.16-.22.35-.43.46-.68.54-1.28,1.21-2.51,1.5-3.89.14-.69.45-1.34.65-1.91.51,0,.91.06,1.29-.01.9-.16,1.48-.78,2.01-1.47.17-.23.35-.45.53-.67-.36,1.14-1.12,1.99-1.89,2.84-.15.17-.28.36-.4.55-1.52,2.44-2.56,5.1-3.3,7.87-.45,1.68-1.44,3.04-2.4,4.41-.41.58-.67,1.11-.69,1.81-.02.65-.05,1.33-.27,1.92-.68,1.77-1.27,3.58-2.24,5.23-.45.78-.71,1.67-1.03,2.46-.16-.04-.33-.08-.5-.12,0,.2-.06.41-.01.59.34,1.31,1,2.47,1.86,3.51.36.43.39.94.04,1.38-.3.38-.67.69-1.03,1.01-.71.62-1.45,1.19-2.14,1.83-.23.22-.43.54-.51.84-.44,1.75-.49,3.49.31,5.32-1.41.64-2.82,1.43-4.39,1.76-1.71.36-3.43.36-5.14-.09,0-1.01.36-1.87.77-2.7,1.03-2.11,1.39-4.33,1.16-6.65-.05-.46-.19-.92-.32-1.37-.03-.1-.22-.16-.34-.23-.05.12-.15.23-.14.35,0,.25.06.5.1.79-.18.04-.32.1-.47.09-.75-.04-1.36.29-1.92.72-.24.18-.38.51-.63.63-.89.42-1.81.78-2.72,1.14-.1.04-.25-.06-.46-.12,1.66-1.04,3.19-1.99,4.72-2.95Zm14.13,36.63c-.06,0-.13.02-.19.03-.04-.26-.07-.53-.14-.78-.07-.24-.13-.62-.29-.68-.34-.13-.46-.37-.55-.65-.12-.41-.27-.81-.32-1.23-.14-1.2-.54-2.25-1.44-3.11-.6-.58-.47-1.32.13-1.89.34-.33.61-.75.87-1.15.28-.41.5-.86.77-1.28.59-.94,1.32-1.81,1.77-2.81.92-2.06,1.69-4.2,2.53-6.29.2-.5.44-1,.73-1.46.39-.61.59-1.25.61-1.97.02-.69.49-1.18.81-1.74.07.09.06.18.1.23.15.16.33.3.49.45.12-.19.34-.37.34-.56,0-.33-.13-.66-.24-1.14.47-.34,1.04-.75,1.61-1.16.13.11.19.18.26.23.27.21.85.24.85.06,0-.2-.21-.4-.36-.67.45-.17.88-.34,1.37-.53.18,1.9-.2,3.52-1.33,4.94-.95,1.2-2,2.32-2.68,3.73-.27.55-.63,1.08-1.04,1.55-1.26,1.45-2.23,3.1-2.87,4.89-.9,2.51-1.61,5.09-2.37,7.64-.12.4-.13.85-.07,1.27.15,1.11.37,2.22.56,3.32.04.26.07.52.1.78Zm-20.24-44.05c0,.07.02.14.03.22.21,0,.43.03.64,0,1-.19,1.99-.11,2.99.02.66.08,1.33.14,1.99.13,1.12-.02,2.24-.1,3.37-.16-.05.5-.17.69-.64.76-.63.1-1.27.17-1.9.14-1.62-.09-3.23-.26-4.85-.38-.45-.03-.91.03-1.45.05-.19-.22-.45-.59-.23-.94.19-.3.57-.46.99-.43,1.14.06,2.28.08,3.42.14.72.04,1.45.13,2.17.19,0,.04,0,.08,0,.12-.81,0-1.62.02-2.43,0-.92-.03-1.84-.14-2.76-.14-.44,0-.88.18-1.33.28Zm10.14-1.77c.18.53.09.64-.48.63-.41,0-.81.05-1.22.09-.76.09-1.53.28-2.29.26-1.44-.03-2.88-.19-4.31-.29-.17-.01-.33-.04-.58-.07.53-.39.91-.77,1.58-.59.69.18,1.42.28,2.14.29.95.02,1.91-.08,2.86-.14.75-.05,1.5-.12,2.3-.19Zm-.07-2.25c.29.3.28.52-.08.72-.22.12-.48.21-.73.26-.58.11-1.17.18-1.75.27-1.28.19-2.56.32-3.83-.1-.72-.24-.87-.72-.4-1.3.81,1.05,1.95,1.14,3.12,1.02.81-.09,1.61-.29,2.41-.48.41-.09.81-.24,1.26-.38Zm-.5-1.06c.04.25.07.49.11.78-.28.08-.56.17-.85.23-.83.17-1.66.36-2.49.47-.77.1-1.55.06-2.25-.35-.56-.33-.59-.77-.12-1.16,1.85,1.48,3.71.9,5.61.02Zm.45,2.41c.03.43.03.47-.42.5-1.64.13-3.29.23-4.94.33-.72.04-1.41-.06-2.1-.41.09-.19.18-.38.27-.57,2.39,1.23,4.77.45,7.19.15Zm-2.36,12.47c.04.05.09.1.13.15-.11.11-.2.28-.33.33-.44.15-.9.28-1.35.37-.97.2-1.67.75-2.19,1.57-.33.53-.81.85-1.38,1.06-.83.32-1,.19-.92-.68,0-.04.04-.08.05-.11.82-.02,1.6-.15,2.21-.71.95-.87,2.08-1.4,3.26-1.85.17-.06.34-.1.51-.14Zm.53-7.47c-1.24.36-2.49.59-3.75.33-.96-.2-1.91-.49-2.91-.13-.08-.2-.14-.36-.23-.62,1.23.06,2.39.04,3.52.19.92.12,1.82.33,2.75.19.2-.03.41.02.62.04Zm-7.54-.94l.04-.14c.08-.03.16-.08.24-.08,1.27.07,2.55.13,3.82.22,1.4.11,2.8.3,4.17-.18.15.41.09.57-.4.59-.92.04-1.88.16-2.76-.02-1.53-.32-3.04-.23-4.57-.2-.18,0-.36-.12-.54-.19Zm1.22,12.64c.01-.06.03-.12.04-.18.84-.19,1.71-.44,2.14-1.24.79-1.45,2.2-1.66,3.61-1.99-.07.48-.37.61-.76.67-.36.05-.78.04-1.05.23-.64.45-1.3.93-1.78,1.54-.47.6-1.03.91-1.72,1.09-.15.04-.33-.07-.5-.11Zm-.12-2.98c.18-.1.35-.21.54-.29.82-.34,1.65-.67,2.47-1.01.12-.05.24-.14.32-.24.63-.86,1.49-1.19,2.57-1.08,0,.12.01.25.02.38-.9-.02-1.66.28-2.3.82-1.04.87-2.26,1.31-3.63,1.43Zm7.5-17c.05.07.09.13.14.2-.11.11-.2.28-.33.33-.93.34-1.86.7-2.86.64-.65-.04-1.29-.19-1.77-.79.11-.12.2-.23.3-.34.57.59,1.18.91,1.89.83.47-.06.91-.3,1.37-.45.42-.14.85-.28,1.27-.41Zm-4.78,9.68c-1.03.93-2.19.48-3.28.46.98-.77,2.1-.6,3.28-.46Zm1.51-.51s.03.03.04.05c-.28.06-.58.2-.85.16-1.21-.16-2.41-.4-3.67-.12.1-.18.23-.37.39-.41.37-.07.75-.12,1.12-.08.99.1,1.98.26,2.97.39Zm-1.56,7.63c-.69.72-1.59,1.21-2.76,1.24.12-.21.26-.44.45-.51.79-.28,1.6-.51,2.3-.72Zm.52-.38c.78-.66,1.59-1.33,2.76-1.35-.01.11,0,.25-.04.27-.92.37-1.84.73-2.72,1.08Zm-2.45-5.68c-.58.57-1.27.15-1.9.26.56-.64,1.27-.18,1.9-.26Zm6.86-5.57c.01.07.03.13.04.2-.6.59-1.41.13-2.08.36,0-.04-.02-.07-.02-.11.69-.15,1.37-.3,2.06-.45Zm-7.99,6.16c.02.06.05.13.07.19-.39.22-.79.44-1.3.73.03-.28,0-.57.08-.59.37-.15.77-.22,1.15-.33Zm1.97,8.96c.41-.42.88-.89,1.34-1.37-.14.87-.56,1.27-1.34,1.37ZM57.86,15.49s-.09-.08-.13-.12c.46-.24.66-.6.54-1.14.21.25.37.44.58.68-.32.19-.65.39-.98.58Zm-21.9,22.15c.23-.19.48-.4.75-.63.09.4-.19.6-.75.63Z"/><path class="cls-2" d="m41.49,74.56c-.07.09-.19.18-.21.28-.13.83-.3,1.65-.33,2.48-.04,1.09-.45,2.04-.89,2.99-.35.76-.79,1.47-1.14,2.23-.24.52-.43,1.07-.61,1.62-.5,1.5-1.01,2.99-1.45,4.51-.21.72-.29,1.49-.35,2.24-.16,1.86-.29,3.72-.42,5.58-.01.16.02.33.03.49l.12-.06c.12.13.27.25.34.4.4.85.77,1.71,1.15,2.58.08.18.16.34-.07.55-.14.13-.09.48-.12.75-.5-.21.3-.83-.35-.99-.05.1-.11.21-.17.32-.03,0-.07,0-.09-.02-.95-1.06-1.91-2.12-2.86-3.19-.26-.3-.45-.65-.69-.96-.13-.17-.27-.33-.45-.45-.4-.27-.43-.7-.08-1.04.29-.28.53-.64.84-.89,1.13-.93,1.14-2.3,1.31-3.54.27-2,.35-4.02.51-6.04.19-2.34.72-4.62,1.44-6.85.39-1.2.42-2.42.35-3.69-.04-.76-.44-1.33-.65-1.99-.4-1.3-.78-2.61-1.17-3.92-.08-.27-.15-.56-.28-.81-.05-.1-.26-.2-.36-.18-.1.02-.24.21-.24.32-.02,1.64.01,3.24,1.2,4.59,1.36,1.55,1.4,3.37.8,5.23-.73,2.26-1.31,4.56-1.6,6.91-.17,1.43-.25,2.88-.35,4.32-.11,1.64-.34,3.26-.9,4.82-.03.09-.06.21-.13.27-.4.37-.83.71-1.22,1.09-.18.18-.3.43-.45.66-.15-.05-.29-.1-.43-.16,0,0,0,.01,0,.02.21.22.35.5.43.8.06.01.12.02.19.04.05.06.15.22.27.35.3.31.62.6.9.92.47.52.91,1.06,1.37,1.58.61.7,1.23,1.39,1.82,2.1.28.34.54.7.81,1.05.37.48.74.62,1.13.41.44-.25.28-.65.22-1.02-.01-.09-.04-.18-.07-.26-.46-1.11-.92-2.21-1.39-3.32-.13-.3-.28-.59-.46-.96.06,0,.11,0,.16,0-.07-.16-.12-.33-.15-.51-.06,0-.11.01-.17.02-.05-.29-.12-.5-.11-.7.1-2.09.27-4.19.87-6.2.59-1.99,1.26-3.97,1.97-5.92.3-.84.79-1.61,1.18-2.41.6-1.23,1-2.51.97-3.9-.01-.74.07-1.49.11-2.23,0-.1-.05-.2-.08-.31Zm-3.46,26.17c.09.36.17.72.27,1.12q-.51-.06-.27-1.12Z"/><path class="cls-2" d="m12.77,42.9c.05-.05.19-.11.21-.2.02-.09-.04-.26-.12-.31-.2-.13-.43-.22-.65-.32-.39-.18-.8-.31-1.15-.54-1.1-.68-1.13-1.95-.08-2.71.07-.05.18-.08.22-.15.07-.12.17-.33.13-.38-.09-.1-.27-.14-.42-.16-.09-.01-.2.07-.3.1-1.22.39-2.4.29-3.52-.3-.15-.08-.23-.29-.37-.42-.13-.11-.28-.27-.43-.27-.25,0-.25.19-.22.43.19,1.38-.34,2.55-1.13,3.63-.12.17-.32.29-.45.45-.11.14-.17.32-.25.49.17.07.33.16.51.21.59.18,1.21.31,1.78.53.21.08.43.32.51.54.18.46.27.96.43,1.43.04.13.18.23.28.35.1-.11.22-.22.29-.35.21-.37.39-.76.62-1.13.11-.17.31-.29.45-.45.89-1.04,1.98-1.04,3.16-.64.11.04.23.08.34.12.03,0,.06,0,.15.02Zm-5.01,1.03c-.24-1.45-1.47-1.57-2.54-1.96.95-1.03,1.37-2.24,1.58-3.42,1.01.21,2.01.42,3.03.63-.47,1.01-.25,1.94.66,2.76-1.25.22-1.81,1.24-2.73,1.99Z"/><path class="cls-2" d="m17.9,19.48c-.17.22-.29.35-.38.5-.05.1-.1.24-.06.33.22.68-.01,1.31-.29,1.89-.37.78-.93,1.42-1.7,1.86-.13.08-.2.25-.3.38.14.09.28.22.43.26.69.21,1.42.33,2.08.61.69.29,1.21.77,1.01,1.66-.03.13.13.3.2.45.13-.1.31-.17.38-.3.87-1.52,2.07-2.08,3.78-1.74.1.02.21.07.31.06.1-.02.26-.08.28-.16.02-.08-.06-.24-.14-.29-.21-.15-.46-.24-.67-.38-.64-.43-.98-1.08-1.15-1.8-.12-.52.25-.94.83-1.04.23-.04.62.05.59-.32-.03-.35-.39-.23-.64-.24-.74-.03-1.49-.02-2.22-.1-.84-.1-1.49-.56-1.98-1.25-.11-.15-.26-.28-.37-.4Zm3.52,2.25c-.58,1.24.09,2.11.74,3.07-1.29-.14-2.14.5-2.86,1.41-.63-1.22-1.72-1.61-2.96-1.91,1.15-1.02,1.87-2.17,1.86-3.79.92.96,1.98,1.28,3.23,1.22Z"/><path class="cls-2" d="m3.72,28.06c1.11-.04,1.69.45,2.3.87.1.07.18.17.28.22.07.03.21.04.25,0,.05-.07.06-.19.04-.28-.03-.1-.11-.18-.17-.27-.43-.61-.52-1.28-.36-2,.14-.64.57-.87,1.19-.64.2.07.45.35.61,0,.04-.08-.25-.35-.43-.47-.51-.35-1.08-.63-1.57-1-.8-.6-1.3-1.35-1.04-2.42.03-.11-.07-.33-.15-.36-.11-.03-.31.05-.38.14-.19.27-.28.61-.48.85-.36.43-.72.95-1.2,1.19-.62.31-1.35.37-2.04.54-.13.03-.26.1-.39.16.06.13.09.29.18.38.28.27.62.49.88.78.29.32.56.68.78,1.06.24.41.24.83-.1,1.22-.1.12-.09.34-.13.51.18-.02.36-.02.53-.07.56-.17,1.12-.35,1.41-.44Zm-.9-.26c-.21-.56-.32-1.06-.57-1.5-.26-.45-.64-.82-1.01-1.27,1.29-.23,2.38-.76,3.11-2.02.29,1.19,1.05,1.88,2.02,2.42-1.01.66-.84,1.63-.8,2.64-.95-.64-1.89-.61-2.76-.27Zm.21,0c-.21-.56-.32-1.06-.57-1.5-.26-.45-.64-.82-1.01-1.27,1.29-.23,2.38-.76,3.11-2.02.29,1.19,1.05,1.88,2.02,2.42-1.01.66-.84,1.63-.8,2.64-.95-.64-1.89-.61-2.76-.27Zm16.35-1.98c-.46-.38-.81-.76-1.24-1.01-.45-.26-.97-.39-1.51-.6,1-.85,1.68-1.85,1.68-3.31.85.89,1.85,1.11,2.96,1.08-.55,1.07.09,1.83.63,2.69-1.14-.08-1.94.42-2.52,1.15Zm-11.12,18.03c-.58-.42-1.05-.84-1.59-1.11-.56-.27-1.2-.38-1.87-.59,1.13-1.11,1.86-2.38,1.73-4.14,1.1.99,2.33,1.17,3.66,1.04-.56,1.34.27,2.2,1,3.18-1.38,0-2.3.67-2.94,1.61Z"/><path class="cls-2" d="m56.89,5.74c.59.11,1.04.57,1.05,1.11,0,.35-.06.69-.09,1.04-.01.15-.02.31-.03.46.04.01.08.03.12.04.09-.12.22-.23.26-.37.22-.73.32-1.44-.21-2.11-.58-.73-1.38-.81-2.15-.58-1.59.48-2.77,1.54-3.65,2.92-.29.46.05,1.69.58,2.21.18.18.4.32.6.48.03-.03.06-.07.1-.1-.2-.25-.43-.49-.59-.76-.17-.28-.28-.59-.45-.96,2.08-.39,3.67-1.36,4.48-3.38Zm-.45,0c-.59,1.56-1.78,2.42-3.28,2.91-.17.06-.4-.03-.7-.06,1.1-1.45,2.25-2.56,3.99-2.84Z"/><path class="cls-2" d="m41.47,65.56c-.12,1.03-.29,2-.34,2.98-.03.53.05,1.1.21,1.61.38,1.16.67,2.31.17,3.51-.04.1.06.26.09.4.12-.07.32-.1.36-.2.1-.25.17-.53.16-.79-.04-.82-.18-1.63-.19-2.45-.02-1.53,0-3.06.04-4.6.01-.53,0-.57-.51-.46Z"/><path class="cls-2" d="m20.94,70.29c.24-.28.38-.43.52-.59.17-.21.37-.41.49-.65.07-.14.1-.43.02-.5-.12-.1-.35-.08-.54-.08-.08,0-.16.08-.23.12-.04-.02-.06-.03-.08-.05-.15-.13-.3-.26-.44-.39-.08.19-.26.41-.23.57.12.51.32,1.01.5,1.55Zm.6-1.45s.07.06.1.08c-.18.21-.36.43-.55.67-.23-.36-.19-.42.45-.75Z"/><path class="cls-2" d="m15.01,64.49c-.04-.06-.05-.09-.07-.11-.15-.14-.31-.28-.46-.42-.07.21-.21.43-.2.64.02.35.14.7.23,1.07.38.12,1.12-.19,1.28-.59.12-.31.05-.54-.32-.59-.15-.02-.3,0-.46,0Zm-.31.93c.05-.25.04-.41.1-.44.19-.09.41-.13.61-.19.02.06.04.12.07.18-.22.13-.43.25-.77.45Z"/><path class="cls-2" d="m26.69,68.45c-.08-.04-.27-.12-.45-.21-.07.25-.23.52-.18.74.09.34.33.64.47.91.21-.22.34-.36.48-.49.06-.06.17-.1.21-.17.11-.21.2-.44.29-.66-.23-.03-.46-.06-.83-.11Z"/><path class="cls-2" d="m44.55,67.43c.21-.31.4-.54.53-.8.09-.18.08-.41.11-.61-.2.07-.4.14-.59.21-.05.02-.1.07-.04.02-.37-.03-.77-.17-.86-.06-.26.34.12.56.32.78.16.17.36.31.52.46Z"/><path class="cls-2" d="m37.94,67.81c-.3-.04-.6-.09-.9-.11-.28-.01-.39.15-.28.41.12.27.25.54.41.79.05.07.3.12.35.07.25-.27.49-.56.69-.87.16-.24.05-.4-.27-.29Z"/><path class="cls-2" d="m16.45,67.15c0,.06,0,.13.02.18.13.27.26.74.41.75.31.02.66-.17.93-.36.25-.17.17-.52-.13-.66-.29-.14-.6-.27-.92-.32-.11-.02-.26.2-.39.31.03.03.05.06.08.1Zm.34.14c.27.02.51.04.85.06-.54.46-.72.44-.85-.06Z"/><path class="cls-2" d="m30.17,70.26c.27.39.54.78.85,1.14.03.03.44-.2.58-.38.36-.45.19-.81-.38-.91-.17-.03-.31-.15-.48-.22-.3-.13-.47-.03-.58.37Zm.9.91c-.2-.37-.34-.65-.49-.92.32.11.59.2.92.32-.12.17-.24.34-.43.61Z"/><path class="cls-2" d="m40.36,68.08c.12-.3.28-.59.35-.9.08-.34-.16-.53-.43-.34-.21.14-.69-.05-.61.37.06.32.33.6.51.9.06,0,.12-.02.18-.03Z"/><path class="cls-2" d="m60.01,52.21c-.02-.11-.04-.22-.05-.33.04-.02.07-.04.11-.06.1.18.19.37.33.64.19-.31.37-.56.51-.83.04-.08-.02-.29-.07-.31-.16-.04-.34-.05-.51-.02-.17.03-.35.08-.49.18-.1.07-.2.25-.19.36.02.15.16.28.25.41l.09-.05Z"/><path class="cls-2" d="m47.74,62.54c.18-.23.4-.42.5-.65.08-.18.11-.46.03-.63-.11-.23-.35-.19-.53,0-.02.02-.05.04-.08.04-.65.16-.71.35-.25.88.1.11.2.22.33.36Zm.45-1.09c-.2.28-.35.48-.54.74-.12-.25-.2-.41-.26-.54.26-.06.45-.12.8-.2Z"/><path class="cls-2" d="m12.35,37.56c.16.1.32.21.5.28.03.01.12-.1.18-.16-.18-.11-.36-.22-.54-.34-.05.07-.09.14-.14.21Z"/><path class="cls-2" d="m23.2,61.32c.61-.72,1.2-1.39,1.77-2.08.82-.98,1.77-1.79,2.87-2.44,1.13-.67,2.21-1.43,3.47-1.89.54-.2,1.01-.61,1.49-.94.08-.06.1-.21.15-.32-.13-.03-.26-.08-.38-.07-.11.01-.21.11-.32.16-.48.23-.94.51-1.43.69-1.84.65-3.44,1.72-4.98,2.89-1.04.79-1.79,1.85-2.48,2.96-.18.3-.39.64-.15,1.05Z"/><path class="cls-2" d="m31.85,59.75c.35-.68.71-1.37,1.06-2.05.32-.62.62-1.25.99-1.84.21-.33.55-.59.85-.9-.21-.31-.57-.4-.89-.03-.47.54-.95,1.12-1.27,1.76-.37.74-.58,1.56-.83,2.35-.07.21-.04.46-.05.69.05,0,.09.02.14.03Z"/><path class="cls-2" d="m44.38,53.06c.21-.04.36-.1.51-.1,1.5.07,3,.17,4.5.23.6.02,1.23-.09,1.67.49.17-.39.09-.68-.26-.85-.24-.11-.52-.18-.78-.18-1.37-.01-2.73.01-4.1,0-.38,0-.75-.07-1.13-.1-.37-.02-.49.15-.4.5Z"/><path class="cls-2" d="m52.43,51c.03-.36-.22-.37-.45-.35-.5.04-.99.14-1.49.16-.59.02-1.19-.07-1.78-.02-.69.06-1.37.21-2.05.35-.13.03-.23.16-.34.24,0,.05.02.1.02.15.19.02.41.11.57.05.92-.37,1.88-.24,2.83-.3.66-.04,1.32-.16,1.98-.23.22-.02.44-.02.7-.04Z"/><path class="cls-2" d="m44.1,58.83c.16-.43,0-.75-.24-1.05-.62-.79-1.24-1.58-1.87-2.36-.08-.1-.24-.13-.37-.19-.03.13-.12.31-.07.4.64,1.16,1.41,2.23,2.38,3.15.03.03.08.03.16.05Z"/><path class="cls-2" d="m41.62,42.15c-.25.4-.47.77-.71,1.13-.57.88-1.72,1.13-2.59.57-.22-.14-.4-.33-.63-.44-.14-.07-.33-.03-.49-.03.01.17-.04.38.04.5.88,1.3,3.23,1.24,4.05-.1.2-.32.35-.67.51-1.01.12-.25.07-.46-.19-.61Z"/><path class="cls-2" d="m41.54,35.84c-.06.03-.1.05-.13.08-.53.34-1.06.68-1.59,1.03-.09.06-.2.11-.24.19-.04.1-.06.25,0,.33.05.08.23.15.3.12.66-.33,1.36-.62,1.78-1.28.06-.1.03-.26.02-.38,0-.03-.09-.06-.14-.08Z"/><path class="cls-2" d="m39.69,51.46c.36-.23.68-.42.99-.61-.26-.1-.51-.27-.77-.29-.29-.01-.63.1-.65.48,0,.11.23.23.43.42Z"/><path class="cls-2" d="m39.27,42.93s.17.22.29.22c.37,0,.35-.35.4-.6.01-.07-.13-.25-.2-.25-.3,0-.5.16-.48.63Z"/><path class="cls-2" d="m45.27,41.27c.15.1.3.28.44.27.14,0,.28-.2.41-.32-.13-.11-.26-.28-.41-.3-.13-.02-.29.11-.43.18,0,.06,0,.11-.01.17Z"/><path class="cls-2" d="m56.62,53.6c.13-.29.3-.57.39-.88.07-.23-.06-.38-.34-.29-.04.01-.08.05-.12.06-.18.06-.37.12-.55.18.11.25.22.51.33.76.03.07.08.13.11.2.06,0,.11-.02.17-.03Z"/><path class="cls-2" d="m54.12,54.96c-.34.11-.76-.19-.75.3,0,.24.3.53.53.7.14.1.52-.37.47-.65-.02-.13-.17-.23-.26-.35Z"/><path class="cls-1" d="m54.04,35.63c.04-.2.12-.38.21-.54-.34.27-.55.45-.82.66-.15.12-.2.17-.27.15-.09-.02-.12-.09-.11-.16,0-.03.03-.06.05-.08.07-.05,1.15-.92,1.54-1.24.83-1.3,1.26-1.81,1.38-1.96.36-.42.61-.47.75-.44.2.04.24.24.21.4-.02.09-.06.2-.14.29-.37.47-1.34,1.34-2,1.89-.22.35-.32.5-.45.79-.03.06-.08.22-.09.28-.02.11-.04.2.07.22.13.03.54-.27.88-.51.12-.09.23-.17.32-.23.03-.02.07-.03.11-.03.09.02.11.1.1.16,0,.03-.04.07-.06.09-.08.05-.18.13-.3.22-.37.27-.84.62-1.13.56-.26-.06-.3-.33-.26-.54Zm2.19-2.98c-.29.32-.58.76-.84,1.15.51-.46,1.02-.94,1.25-1.24.05-.06.08-.13.09-.18,0-.04.01-.08,0-.09-.07-.01-.23.06-.49.35Z"/><path class="cls-1" d="m55.33,35.73c.1-.46.54-1.08,1.19-1.33.04,0,.08-.02.1-.02.07.02.12.1.11.16,0,.04-.04.08-.09.1-.55.22-.96.75-1.05,1.15-.04.18,0,.37.18.4.21.04.48-.1.66-.21-.11-.16-.14-.39-.09-.65.07-.34.44-.98.86-.89.28.06.27.4.23.6-.08.38-.31.67-.56.92h.02c.2.05.47-.06.86-.36.03-.02.08-.03.11-.02.09.02.11.1.09.16,0,.03-.03.06-.05.08-.35.26-.72.47-1.07.4-.08-.02-.13-.04-.19-.07-.27.2-.61.35-.92.28-.36-.08-.45-.43-.38-.72Zm1.27-.34c-.02.1-.04.29.04.42.23-.22.46-.52.52-.81.02-.08.05-.27-.02-.29-.22-.05-.49.43-.54.68Z"/><path class="cls-1" d="m58.15,36.95c-.1-.08-.13-.19-.1-.32.05-.24.26-.54.52-.9.12-.16.35-.48.37-.56,0-.03.01-.05-.02-.06-.03,0-.12.05-.19.09-.16.1-.39.28-.85.64-.03.02-.07.03-.11.02-.07-.02-.12-.08-.1-.16,0-.03.04-.07.06-.09l.13-.09c.29-.22.74-.57.88-.63.1-.04.2-.06.27-.04.17.04.22.22.19.35s-.14.31-.42.68c-.17.22-.43.6-.47.79-.01.05,0,.07.03.08.25.05,1.01-.5,1.55-.97.12-.17.33-.4.47-.5.03-.02.06-.04.12-.02.09.02.13.11.12.17-.03.16-.38.41-.48.49-.08.12-.13.23-.15.34-.03.12,0,.25.12.27.13.03.34-.07.64-.27.03-.02.08-.03.1-.02.09.02.11.1.1.16,0,.03-.03.06-.05.08-.18.13-.57.38-.85.32-.25-.05-.39-.29-.34-.52-.51.41-1.11.79-1.43.73-.04,0-.08-.02-.12-.05Z"/><path class="cls-1" d="m60.47,36.84c.12-.59.89-1.47,1.51-1.34.24.05.36.22.32.43-.07.32-.58.62-1.44.64-.06.12-.1.23-.13.34-.04.2.02.36.21.4.3.06.91-.14,1.62-.66.03-.02.08-.03.11-.02.09.02.1.11.09.16,0,.03-.03.06-.05.08-.7.53-1.39.8-1.81.71-.4-.09-.5-.41-.43-.73Zm.57-.55c.68-.03.96-.26,1-.42.01-.06-.06-.1-.11-.11-.3-.06-.68.27-.89.53Z"/><path class="cls-1" d="m65.11,38c-.25.19-.56.34-.86.28-.32-.07-.43-.35-.37-.66.16-.76,1.25-1.49,2.07-1.32.22.05.35.14.38.16.03.03.08.07.07.12,0,.03-.02.04-.04.06-.09.14-.41.56-.74.9-.12.19-.22.39-.25.51-.02.09,0,.19.09.2.21.04,1.05-.59,1.26-.73.06-.04.08-.03.11-.03.08.02.11.1.1.16,0,.03-.04.07-.06.09-.72.52-1.19.83-1.46.78-.27-.06-.35-.3-.3-.52Zm-.96-.32c-.03.15.01.3.16.33.36.08.86-.36,1.11-.63h0c.21-.3.47-.6.62-.77-.04-.02-.09-.03-.14-.04-.72-.15-1.62.53-1.75,1.12Z"/><path class="cls-1" d="m66.95,38.68s.02-.05.07-.11c.37-.43.91-1.17.97-1.45,0-.03,0-.07-.01-.07-.03,0-.08,0-.16.04-.14.06-.58.39-.95.67-.03.03-.08.03-.11.03-.07-.02-.12-.09-.11-.16,0-.03.04-.07.06-.09.29-.22.81-.61.99-.7.12-.05.23-.07.32-.05.2.04.26.25.23.4-.02.07-.06.19-.13.31.41-.31.81-.5,1.17-.43.19.04.31.18.27.36-.06.26-.35.65-.48.82-.17.21-.38.5-.41.65,0,.03,0,.04.03.05.22.05.79-.36,1.27-.72.02-.02.07-.03.1-.02.09.02.11.09.1.16,0,.03-.03.06-.05.08-.49.36-1.14.83-1.49.76-.2-.04-.26-.22-.23-.35.04-.2.25-.47.46-.76.17-.23.39-.52.43-.69.01-.05-.01-.07-.06-.07-.3-.06-.71.18-1.06.47-.32.26-.66.64-.84.85l-.15.17s-.1.04-.13.03c-.09-.02-.12-.08-.11-.16Z"/><path class="cls-1" d="m69.6,38.84c.05-.25.22-.51.49-.75.69-.61,1.29-.59,1.58-.53.08.02.2.04.24.11.28-.38.56-.78.77-1.08.12-.18.23-.37.32-.46.06-.06.1-.06.14-.06.07.02.12.09.1.16,0,.02-.03.05-.04.07-.09.15-.2.3-.33.47l-.13.2c-.18.27-.43.64-.87,1.2-.44.58-.64.98-.68,1.15-.01.05-.02.14,0,.15.17.04.79-.42,1.23-.73.02-.02.07-.03.11-.03.09.02.12.08.1.16,0,.03-.04.08-.06.09-.71.5-1.17.82-1.43.77-.22-.05-.25-.3-.21-.46,0-.04.02-.09.04-.13-.29.21-.67.42-1.01.35-.32-.07-.43-.36-.37-.64Zm2.16-.97h0s-.07-.02-.1-.03c-.01,0-.03-.01-.04-.02-.23-.05-.75-.05-1.34.48-.23.2-.37.44-.41.59-.03.15.02.3.16.33.32.07.73-.23.95-.44.25-.23.46-.49.65-.73l.13-.18Z"/><path class="cls-1" d="m56.61,40.74l-.23.15s-.1.04-.15.02c-.07-.04-.07-.11-.06-.17,0-.01.03-.06.05-.07.33-.23.9-.63,1.12-.79.31-.24.64-.52.87-.75.04-.04.13-.13.23-.11.08.02.11.1.09.16,0,.05-.08.09-.14.15-.04.05-.07.15-.09.27-.03.16-.06.3-.07.44-.02.13-.03.26-.06.39-.03.16-.08.32-.15.45.34-.14.76-.4,1.05-.61.03-.02.08-.03.1-.02.09.02.11.09.1.16,0,.03-.03.07-.05.09-.54.4-1.32.86-1.93.73-.28-.06-.53-.27-.68-.5Zm1.29-.35c.03-.16.05-.31.07-.45,0-.08.04-.3.03-.23-.15.14-.34.28-.66.52-.11.08-.2.15-.49.35.12.19.29.33.53.38.3.06.45-.21.53-.58Z"/><path class="cls-1" d="m59,40.37s.03-.06.06-.09c.28-.19.48-.38.66-.57l-.25-.05c-.08-.02-.12-.09-.11-.16.02-.07.09-.12.16-.1l.39.08.15-.19c.4-.61.55-.8.55-.8.03-.04.08-.07.14-.06.09.02.11.09.1.16,0,.01-.01.05-.03.08l-.61.88.62.13c.07.02.12.08.11.16-.02.07-.09.12-.16.11l-.72-.15c-.24.37-.59.94-.66,1.28-.02.11-.03.28.08.3.17.04.79-.38,1.25-.73.03-.02.07-.03.1-.02.07.02.12.1.11.16,0,.03-.04.07-.06.08-.3.23-1.1.85-1.46.77-.28-.06-.33-.35-.28-.61.04-.18.12-.4.25-.64l-.18.13s-.07.03-.1.02c-.08-.02-.12-.09-.11-.16Z"/><path class="cls-1" d="m61.61,41.64c-.25.19-.56.34-.86.28-.32-.07-.44-.35-.37-.66.16-.76,1.25-1.49,2.07-1.32.22.05.35.14.38.16.03.03.08.07.07.12,0,.03-.02.04-.04.06-.09.14-.42.56-.74.9-.12.19-.22.39-.25.51-.02.09.01.19.09.2.21.04,1.06-.59,1.25-.74.06-.04.08-.03.11-.03.07.02.11.1.1.16,0,.03-.04.07-.06.09-.72.52-1.19.83-1.46.78-.27-.06-.35-.3-.3-.52Zm-.96-.32c-.03.15.01.3.16.33.36.08.86-.36,1.11-.63h0c.21-.3.48-.6.62-.77-.04-.02-.09-.03-.14-.04-.71-.15-1.62.53-1.75,1.12Z"/><path class="cls-1" d="m63.65,42.19c.05-.22.33-.52.5-.71,0-.01.24-.27.34-.39.03-.04.06-.08.07-.12,0-.01,0-.02-.04-.03l-.14-.03c-.09-.02-.17-.05-.2-.13-.22.18-.52.42-.79.61-.02.02-.07.03-.1.02-.09-.02-.12-.09-.1-.16,0-.03.02-.05.04-.08.25-.19.63-.48.86-.66.21-.17.23-.2.26-.22.03-.02.09-.04.13-.04.09.02.12.1.11.15,0,.03-.03.08-.07.11-.06.06-.09.11-.08.12,0,.02.1.02.18.04.15.03.25.17.22.31-.04.19-.32.48-.52.71-.17.19-.38.4-.41.54,0,.04.01.07.05.07.01,0,.04,0,.06,0,.27-.12.58-.33.84-.52.12-.08.22-.16.31-.22.02-.02.07-.03.1-.02.06.01.12.1.11.16,0,.03-.04.07-.06.09l-.12.09c-.29.21-.75.55-1.07.68-.07.03-.15.03-.22.02-.19-.04-.29-.22-.26-.39Z"/><path class="cls-1" d="m64.36,42.26s-.02-.05-.01-.1c0-.04.04-.07.07-.09.27-.17.55-.35.77-.52.29-.23.61-.52.85-.76.04-.04.13-.13.23-.11.07.02.11.1.09.16,0,.05-.08.1-.14.15-.04.05-.07.15-.09.27-.03.16-.06.3-.07.44-.02.13-.04.26-.06.39-.03.16-.08.32-.15.45.34-.14.76-.4,1.05-.61.03-.02.08-.03.1-.02.09.02.11.09.1.16,0,.03-.03.07-.05.09-.54.4-1.32.86-1.93.73-.35-.07-.6-.33-.74-.63Zm.29-.01c.13.2.28.33.53.38.3.06.45-.21.53-.58.03-.16.05-.31.07-.45.01-.08.04-.3.03-.23-.14.13-.31.26-.51.42-.19.14-.4.3-.65.46Z"/><path class="cls-3" d="m32.28,94.91c-.06.1-.12.2-.18.3-5.36-1.71-9.73-4.91-13.17-9.39-1.75-2.29-3.21-4.77-4.48-7.35-.72-1.47-1.35-3-1.84-4.56-1.07-3.36-2.11-6.73-2.65-10.23-.2-1.26-.49-2.5-.44-3.79.02-.62.05-1.24,0-1.85-.03-.41-.3-.49-.58-.2-.27.29-.5.62-.69.97-1.25,5.19-1.2,3.76-1.39,8.33-.29,4.47-.48,7.67-.22,11.56.49,7.37,2.91,14.02,7.62,19.75,4.77,5.79,10.87,9.46,18.16,11.15,1.68.39,3.41.55,5.1.9,2.16.44,4.34.49,6.53.44,3.88-.08,6.85-.27,10.61-1.38,5.53-1.63,7.63-3.83,11.94-7.71,2.75-2.48,2.74-3.32,4.63-6.52,1.88-3.19,3.92-6.62,4.68-10.22.85-4.03.99-8.11.79-12.21-.19-3.99-.91-7.88-2.06-11.69-.52-1.71-1.25-3.26-1.88-4.93-.66-1.32-.66-1.67-1.42-2.73-.17-.2-.42-.36-.65-.48-.42-.22-.54-.02-.56.46,0,.15.08.42.14.54.43,1.75.67,3.16.69,4.88.04,3.32-.57,6.54-1.57,9.68-.84,2.66-1.54,5.39-2.85,7.88-.89,1.69-1.83,3.37-2.88,4.96-.93,1.41-2.01,2.71-3.07,4.02-1.01,1.25-2.34,2.16-3.63,3.1-.5.37-.98.77-1.49,1.12-.7.48-1.38,1.01-2.14,1.38-1.99.98-3.96,2-6.03,2.8-1.72.67-3.55,1.05-5.33,1.55-.67.19-1.35.38-2.04.48-1.03.15-2.08.23-3.19.35"/><path class="cls-2" d="m67.89,91.53c-.14-.15-.29-.28-.4-.44-.07-.1-.14-.27-.09-.35.07-.13.21-.27.35-.3.83-.16,1.64.49,1.67,1.34,0,.14-.16.38-.29.43-.73.26-1.46.2-2.18-.05-.1-.03-.19-.1-.26-.17-.87-.78-.72-2.59.26-3.21.54-.34,1.12-.54,1.76-.53.12,0,.23-.02.35-.04.02-.05.03-.09.05-.14-.15-.06-.3-.15-.46-.17-1.75-.25-3.2,1.27-2.87,3.01.25,1.29.66,1.72,1.96,1.87.5.05,1.03-.02,1.53-.13.5-.11.65-.4.58-.92-.14-1.04-.87-1.67-1.93-1.67-.44,0-.72.19-.83.61-.12.45.15.68.49.86.09.04.19.07.28.1.02-.03.05-.06.07-.08Z"/><path class="cls-2" d="m44.41,104.93c.13.11.52,0,.32.42,0,.01.14.09.21.14.09-.14.25-.29.24-.43-.03-.43-.59-.75-1.01-.63-.34.1-.5.35-.38.69.19.55.56.95,1.1,1.16.66.26,1.33-.21,1.34-.93,0-.32-.04-.65-.09-.97-.05-.31-.23-.42-.47-.29.04.42.1.8.1,1.18,0,.46-.41.7-.79.45-.27-.18-.47-.44-.71-.67.04-.04.09-.08.13-.12Z"/><path class="cls-2" d="m17.4,93.07c.17.02.35.06.52.07,1.63.1,2.54,1.77,2.05,3.22-.11.34-.29.66-.45.99-.2.4-.57.55-.99.49-.42-.05-.84-.12-1.24-.25-.17-.06-.32-.27-.43-.43-.14-.21-.23-.44-.35-.7-.28.63,0,1.43.57,1.53.63.12,1.28.14,1.93.14.21,0,.48-.16.61-.33.71-.94,1-2,.66-3.17-.32-1.11-1.6-1.91-2.73-1.74-.05,0-.1.05-.15.08,0,.04,0,.07.01.11Z"/><path class="cls-2" d="m17.32,95.38c.27,0,.53-.01.78,0,.13.01.32.05.36.13.09.2.23.51.13.63-.19.25-.46.06-.66-.1-.11-.09-.19-.21-.28-.31-.26.28-.23.5.08.73.42.31,1.02.29,1.27-.04.27-.37.08-1.04-.36-1.3-.44-.25-1.1-.12-1.32.25Z"/><path class="cls-2" d="m17.14,89.65c-.21-.29-.41-.6-.65-.87-.05-.06-.24,0-.36,0,.02.11.04.22.07.33,0,.01.02.02.03.03.2.22.44.52.18.75-.3.27-.56-.06-.8-.27-.1-.08-.24-.11-.37-.16-.02.14-.08.29-.04.41.13.41.8.74,1.24.64.4-.09.62-.38.71-.86Z"/><path class="cls-2" d="m67.18,80.14c.73.2.89.43.76,1.14-.07-.14-.14-.28-.22-.41-.06-.1-.16-.17-.24-.26-.07.12-.23.27-.2.34.11.24.25.5.45.65.28.21.67,0,.63-.35-.04-.36-.14-.75-.32-1.06-.19-.35-.51-.25-.87-.05Z"/><path class="cls-2" d="m42.14,107.44c.27,0,.54.04.79-.01.32-.07.43-.7.17-.93-.04-.03-.24.05-.24.07.05.54-.41.59-.73.86Z"/><path class="cls-2" d="m42.12,104.73c.38.21.62.04.76-.18.13-.2.14-.47.19-.71,0-.02-.14-.09-.22-.1-.03,0-.11.1-.1.13.09.46-.23.64-.62.86Z"/><path class="cls-2" d="m14.87,92.37c.14.33.22.61.37.84.06.09.28.08.43.12.03-.13.1-.28.07-.4-.08-.36-.33-.55-.87-.56Z"/></g></svg>